<svg width="1200" height="1600" viewBox="0 0 1200 1600" fill="none" xmlns="http://www.w3.org/2000/svg">
  <defs>
    <linearGradient id="bg" x1="600" y1="0" x2="600" y2="1600" gradientUnits="userSpaceOnUse">
      <stop stop-color="#1E3A8A"/>
      <stop offset="0.45" stop-color="#7C3AED"/>
      <stop offset="1" stop-color="#FB923C"/>
    </linearGradient>
    <linearGradient id="card" x1="240" y1="180" x2="960" y2="1420" gradientUnits="userSpaceOnUse">
      <stop stop-color="rgba(255,255,255,0.96)"/>
      <stop offset="1" stop-color="rgba(255,248,240,0.92)"/>
    </linearGradient>
    <linearGradient id="body" x1="420" y1="650" x2="760" y2="1110" gradientUnits="userSpaceOnUse">
      <stop stop-color="#FB7185"/>
      <stop offset="1" stop-color="#FB923C"/>
    </linearGradient>
    <linearGradient id="pet" x1="730" y1="980" x2="910" y2="1180" gradientUnits="userSpaceOnUse">
      <stop stop-color="#FFFFFF"/>
      <stop offset="1" stop-color="#E2E8F0"/>
    </linearGradient>
    <filter id="shadow" x="170" y="138" width="860" height="1320" filterUnits="userSpaceOnUse" color-interpolation-filters="sRGB">
      <feFlood flood-opacity="0" result="BackgroundImageFix"/>
      <feColorMatrix in="SourceAlpha" type="matrix" values="0 0 0 0 0 0 0 0 0 0 0 0 0 0 0 0 0 0 127 0" result="hardAlpha"/>
      <feOffset dy="18"/>
      <feGaussianBlur stdDeviation="25"/>
      <feComposite in2="hardAlpha" operator="out"/>
      <feColorMatrix type="matrix" values="0 0 0 0 0.0588235 0 0 0 0 0.0941176 0 0 0 0 0.160784 0 0 0 0.22 0"/>
      <feBlend mode="normal" in2="BackgroundImageFix" result="effect1_dropShadow_1_1"/>
      <feBlend mode="normal" in="SourceGraphic" in2="effect1_dropShadow_1_1" result="shape"/>
    </filter>
  </defs>

  <rect width="1200" height="1600" fill="url(#bg)"/>
  <circle cx="190" cy="220" r="110" fill="#FDE68A" fill-opacity="0.16"/>
  <circle cx="1040" cy="340" r="140" fill="#FFFFFF" fill-opacity="0.12"/>
  <circle cx="980" cy="1290" r="160" fill="#A7F3D0" fill-opacity="0.16"/>

  <g filter="url(#shadow)">
    <rect x="220" y="170" width="760" height="1230" rx="44" fill="white" fill-opacity="0.92"/>
  </g>

  <text x="600" y="300" text-anchor="middle" fill="#F97316" font-size="78" font-weight="700" font-family="Segoe UI, Arial, sans-serif">virtual talk</text>
  <text x="600" y="370" text-anchor="middle" fill="#475569" font-size="34" font-weight="600" font-family="Segoe UI, Arial, sans-serif">캐릭터가 브이하고 있는 대표 이미지</text>

  <g>
    <ellipse cx="600" cy="1250" rx="230" ry="42" fill="#0F172A" fill-opacity="0.12"/>
    <rect x="430" y="640" width="300" height="390" rx="120" fill="url(#body)"/>
    <rect x="465" y="520" width="230" height="220" rx="110" fill="#FDE68A"/>

    <circle cx="540" cy="615" r="12" fill="#0F172A"/>
    <circle cx="620" cy="615" r="12" fill="#0F172A"/>
    <path d="M545 680C566 702 595 702 618 680" stroke="#7C2D12" stroke-width="10" stroke-linecap="round"/>

    <path d="M438 770C390 760 350 782 328 832" stroke="#FB7185" stroke-width="42" stroke-linecap="round"/>
    <path d="M760 748C828 700 918 716 948 826" stroke="#FB923C" stroke-width="42" stroke-linecap="round"/>
    <path d="M942 826L972 760" stroke="#FB923C" stroke-width="22" stroke-linecap="round"/>
    <path d="M962 842L1020 792" stroke="#FB923C" stroke-width="22" stroke-linecap="round"/>

    <path d="M512 1004L474 1180" stroke="#FB7185" stroke-width="44" stroke-linecap="round"/>
    <path d="M646 1004L686 1180" stroke="#FB923C" stroke-width="44" stroke-linecap="round"/>

    <rect x="502" y="470" width="156" height="40" rx="20" fill="#60A5FA"/>
    <circle cx="662" cy="452" r="18" fill="#FACC15"/>
    <path d="M662 432L668 446L684 448L672 458L676 474L662 466L648 474L652 458L640 448L656 446L662 432Z" fill="#F59E0B"/>
  </g>

  <g>
    <ellipse cx="835" cy="1212" rx="96" ry="24" fill="#0F172A" fill-opacity="0.1"/>
    <rect x="760" y="1030" width="150" height="146" rx="52" fill="url(#pet)"/>
    <circle cx="808" cy="1014" r="26" fill="white"/>
    <circle cx="862" cy="1014" r="26" fill="white"/>
    <circle cx="810" cy="1084" r="10" fill="#0F172A"/>
    <circle cx="860" cy="1084" r="10" fill="#0F172A"/>
    <circle cx="835" cy="1118" r="11" fill="#0F172A"/>
    <path d="M815 1140C827 1152 843 1152 855 1140" stroke="#7C2D12" stroke-width="6" stroke-linecap="round"/>
  </g>

  <g fill="#FFFFFF" fill-opacity="0.92">
    <rect x="316" y="1240" width="148" height="74" rx="24"/>
    <rect x="508" y="1240" width="182" height="74" rx="24"/>
    <rect x="730" y="1240" width="172" height="74" rx="24"/>
  </g>
  <text x="390" y="1288" text-anchor="middle" fill="#334155" font-size="28" font-weight="700" font-family="Segoe UI, Arial, sans-serif">우주</text>
  <text x="599" y="1288" text-anchor="middle" fill="#334155" font-size="28" font-weight="700" font-family="Segoe UI, Arial, sans-serif">말하기</text>
  <text x="816" y="1288" text-anchor="middle" fill="#334155" font-size="28" font-weight="700" font-family="Segoe UI, Arial, sans-serif">꾸미기</text>

  <text x="600" y="1478" text-anchor="middle" fill="#FFFFFF" font-size="32" font-weight="600" font-family="Segoe UI, Arial, sans-serif">광고 없이 · 결제 없이 · 무제한 플레이</text>
</svg>
