<svg xmlns="http://www.w3.org/2000/svg" viewBox="0 0 512 512">
  <defs>
    <linearGradient id="bg" x1="0" y1="0" x2="1" y2="1">
      <stop offset="0%" stop-color="#fb923c"/>
      <stop offset="55%" stop-color="#60a5fa"/>
      <stop offset="100%" stop-color="#34d399"/>
    </linearGradient>
    <linearGradient id="planet" x1="0" y1="0" x2="1" y2="1">
      <stop offset="0%" stop-color="#f8fafc"/>
      <stop offset="100%" stop-color="#bfdbfe"/>
    </linearGradient>
  </defs>

  <rect width="512" height="512" rx="120" fill="url(#bg)"/>
  <circle cx="126" cy="110" r="10" fill="#ffffff" opacity="0.9"/>
  <circle cx="386" cy="98" r="8" fill="#ffffff" opacity="0.8"/>
  <circle cx="418" cy="154" r="6" fill="#ffffff" opacity="0.7"/>

  <ellipse cx="256" cy="370" rx="178" ry="42" fill="#86efac" opacity="0.9"/>

  <g transform="translate(82 118)">
    <circle cx="92" cy="58" r="38" fill="#fde68a"/>
    <rect x="44" y="90" width="96" height="118" rx="34" fill="#f8fafc" opacity="0.96"/>
    <path d="M68 90 L116 52 L164 90 Z" fill="#fb7185"/>
    <rect x="87" y="142" width="22" height="66" rx="11" fill="#93c5fd"/>
  </g>

  <g transform="translate(236 118)">
    <circle cx="88" cy="72" r="48" fill="url(#planet)"/>
    <ellipse cx="88" cy="78" rx="74" ry="22" fill="none" stroke="#eff6ff" stroke-width="16"/>
    <text x="88" y="86" text-anchor="middle" font-size="32" font-family="Segoe UI, sans-serif" font-weight="700" fill="#1d4ed8">우주</text>
  </g>

  <g transform="translate(180 288)">
    <rect x="0" y="0" width="150" height="120" rx="46" fill="#fff7ed" opacity="0.98"/>
    <circle cx="50" cy="50" r="10" fill="#1f2937"/>
    <circle cx="100" cy="50" r="10" fill="#1f2937"/>
    <path d="M56 84 C72 100, 92 100, 108 84" fill="none" stroke="#7c2d12" stroke-width="8" stroke-linecap="round"/>
    <circle cx="36" cy="10" r="16" fill="#fff7ed"/>
    <circle cx="114" cy="10" r="16" fill="#fff7ed"/>
  </g>
</svg>
